<svg width="200" height="200" viewBox="0 0 200 200" fill="none" xmlns="http://www.w3.org/2000/svg">
<g clip-path="url(#clip0_20_226)">
<rect width="200" height="200" fill="white"/>
<path d="M147.6 176H121.2V134C121.2 130.8 120.333 128.2 118.6 126.2C117 124.2 114.267 123.2 110.4 123.2H80V176H53.6V36H107.2C114.4 36 120.733 37 126.2 39C131.667 41 136.2 43.8 139.8 47.4C143.533 50.8667 146.333 54.9333 148.2 59.6C150.2 64.2667 151.2 69.2667 151.2 74.6V79.4C151.2 85.1333 149.667 90.5333 146.6 95.6C143.533 100.533 138.8 104.333 132.4 107V110.6C137.067 111.133 140.733 112.933 143.4 116C146.2 119.067 147.6 122.933 147.6 127.6V176ZM80 98H105.2C111.6 98 116.467 96.5333 119.8 93.6C123.133 90.5333 124.8 86.2667 124.8 80.8V78.4C124.8 73.7333 123.133 69.7333 119.8 66.4C116.467 62.9333 111.6 61.2 105.2 61.2H80V98Z" fill="black"/>
</g>
<defs>
<clipPath id="clip0_20_226">
<rect width="200" height="200" fill="white"/>
</clipPath>
</defs>
</svg>
